33D32945 STP File, STP Format Version 1.0

SECTION Comment
Name    "small09"
Creator "Nikola Labus"
Remark  "Generated example, 45 nodes, 11 terminals"
END

SECTION Graph
Nodes 45
Edges 90
E 1 2 10
E 1 7 10
E 1 20 9
E 1 34 4
E 2 3 1
E 2 22 8
E 2 29 2
E 3 4 5
E 4 5 10
E 4 17 8
E 4 36 5
E 4 40 10
E 5 6 7
E 5 8 7
E 5 32 10
E 6 7 7
E 6 16 7
E 6 18 8
E 7 8 4
E 7 13 5
E 7 14 4
E 8 9 2
E 8 13 6
E 8 16 9
E 8 35 3
E 9 10 10
E 9 18 1
E 9 45 8
E 10 11 4
E 11 12 2
E 12 13 5
E 12 21 8
E 13 14 10
E 14 15 2
E 14 23 5
E 15 16 10
E 15 19 7
E 15 24 3
E 15 40 9
E 16 17 1
E 16 30 10
E 16 45 5
E 17 18 6
E 17 20 4
E 17 43 2
E 18 19 9
E 18 22 10
E 18 31 10
E 18 45 9
E 19 20 7
E 19 31 8
E 20 21 6
E 20 37 2
E 20 38 7
E 21 22 2
E 22 23 9
E 22 29 3
E 23 24 6
E 23 28 9
E 24 25 1
E 25 26 7
E 25 29 8
E 26 27 8
E 27 28 2
E 27 39 10
E 28 29 7
E 29 30 6
E 30 31 8
E 30 45 5
E 31 32 3
E 31 36 9
E 31 45 8
E 32 33 7
E 32 36 4
E 33 34 3
E 34 35 9
E 34 39 5
E 35 36 5
E 36 37 10
E 37 38 9
E 38 39 8
E 38 43 6
E 39 40 8
E 40 41 7
E 40 43 7
E 41 42 10
E 41 44 1
E 42 43 5
E 43 44 6
E 44 45 4
END

SECTION Terminals
Terminals 11
T 1
T 5
T 11
T 12
T 16
T 19
T 27
T 29
T 31
T 36
T 45
END

EOF
