33D32945 STP File, STP Format Version 1.0

SECTION Comment
Name    "small05"
Creator "Nikola Labus"
Remark  "Generated example, 25 nodes, 7 terminals"
END

SECTION Graph
Nodes 25
Edges 50
E 1 2 5
E 1 16 2
E 1 20 6
E 1 22 2
E 2 3 3
E 2 8 10
E 3 4 4
E 3 11 1
E 4 5 9
E 4 8 4
E 4 10 7
E 4 21 5
E 5 6 9
E 5 7 6
E 5 25 3
E 6 7 5
E 6 9 9
E 6 15 1
E 6 25 9
E 7 8 10
E 7 23 5
E 8 9 7
E 9 10 10
E 9 17 9
E 10 11 7
E 10 12 4
E 11 12 6
E 12 13 4
E 13 14 3
E 13 20 8
E 13 22 6
E 14 15 9
E 14 20 4
E 15 16 8
E 15 17 8
E 16 17 2
E 16 22 9
E 16 24 2
E 17 18 1
E 17 21 10
E 18 19 2
E 18 22 5
E 18 25 9
E 19 20 3
E 20 21 3
E 21 22 7
E 21 25 6
E 22 23 10
E 23 24 2
E 24 25 7
END

SECTION Terminals
Terminals 7
T 1
T 3
T 8
T 18
T 19
T 23
T 25
END

EOF
