33D32945 STP File, STP Format Version 1.0

SECTION Comment
Name    "small04"
Creator "Nikola Labus"
Remark  "Generated example, 20 nodes, 6 terminals"
END

SECTION Graph
Nodes 20
Edges 40
E 1 2 2
E 2 3 1
E 2 8 5
E 2 11 4
E 2 15 9
E 3 4 5
E 3 7 10
E 3 8 2
E 3 18 5
E 3 20 3
E 4 5 4
E 4 11 2
E 4 13 6
E 5 6 4
E 5 9 4
E 6 7 3
E 6 12 6
E 6 14 6
E 7 8 2
E 7 12 5
E 7 18 9
E 7 19 2
E 8 9 9
E 8 14 8
E 8 18 3
E 9 10 2
E 9 13 8
E 9 19 1
E 10 11 10
E 11 12 7
E 12 13 1
E 12 20 5
E 13 14 1
E 13 15 5
E 14 15 2
E 15 16 4
E 16 17 4
E 17 18 9
E 18 19 10
E 19 20 1
END

SECTION Terminals
Terminals 6
T 3
T 7
T 11
T 13
T 15
T 16
END

EOF
