33D32945 STP File, STP Format Version 1.0

SECTION Comment
Name    "small06"
Creator "Nikola Labus"
Remark  "Generated example, 30 nodes, 8 terminals"
END

SECTION Graph
Nodes 30
Edges 60
E 1 2 1
E 1 13 7
E 1 27 2
E 2 3 4
E 2 4 9
E 2 13 6
E 2 20 2
E 2 24 6
E 2 29 3
E 3 4 2
E 3 17 3
E 3 20 2
E 4 5 1
E 4 13 10
E 5 6 6
E 5 14 3
E 5 16 4
E 6 7 2
E 6 14 8
E 6 17 1
E 7 8 9
E 7 10 1
E 7 16 7
E 7 18 8
E 7 22 6
E 8 9 4
E 8 19 10
E 9 10 5
E 9 15 4
E 9 30 8
E 10 11 8
E 10 14 9
E 11 12 4
E 12 13 9
E 13 14 3
E 14 15 10
E 14 22 10
E 15 16 10
E 15 26 9
E 16 17 8
E 16 19 9
E 17 18 4
E 17 19 6
E 18 19 8
E 19 20 7
E 19 24 9
E 20 21 4
E 21 22 2
E 22 23 2
E 22 28 4
E 23 24 7
E 24 25 6
E 25 26 7
E 25 30 4
E 26 27 7
E 26 28 2
E 27 28 8
E 28 29 1
E 28 30 2
E 29 30 2
END

SECTION Terminals
Terminals 8
T 5
T 8
T 9
T 10
T 13
T 15
T 21
T 22
END

EOF
