33D32945 STP File, STP Format Version 1.0

SECTION Comment
Name    "small10"
Creator "Nikola Labus"
Remark  "Generated example, 50 nodes, 12 terminals"
END

SECTION Graph
Nodes 50
Edges 100
E 1 2 1
E 1 19 5
E 1 33 9
E 1 47 3
E 2 3 4
E 2 8 10
E 3 4 5
E 3 30 2
E 3 49 3
E 4 5 5
E 5 6 8
E 5 18 7
E 5 31 5
E 6 7 2
E 6 31 6
E 7 8 4
E 7 22 8
E 7 34 8
E 7 43 3
E 8 9 5
E 8 15 8
E 8 42 3
E 8 50 7
E 9 10 10
E 9 19 8
E 9 33 10
E 10 11 4
E 10 25 4
E 10 32 1
E 11 12 7
E 12 13 2
E 12 18 10
E 13 14 9
E 13 34 6
E 13 45 4
E 14 15 4
E 14 18 9
E 15 16 3
E 16 17 5
E 16 30 9
E 16 46 3
E 17 18 3
E 17 21 6
E 18 19 2
E 19 20 1
E 20 21 3
E 20 36 1
E 21 22 5
E 21 48 8
E 22 23 10
E 22 27 6
E 22 33 5
E 22 40 7
E 23 24 10
E 24 25 5
E 25 26 8
E 25 30 6
E 25 37 4
E 25 46 7
E 26 27 2
E 26 43 9
E 27 28 8
E 27 30 1
E 27 31 8
E 27 36 2
E 27 42 3
E 27 50 1
E 28 29 5
E 28 41 8
E 29 30 7
E 29 35 8
E 29 41 1
E 30 31 5
E 31 32 9
E 31 34 8
E 32 33 9
E 32 43 3
E 32 45 5
E 32 46 5
E 33 34 8
E 33 39 3
E 33 46 5
E 34 35 8
E 35 36 2
E 36 37 10
E 36 49 9
E 37 38 1
E 38 39 7
E 39 40 6
E 40 41 10
E 40 49 8
E 41 42 5
E 42 43 1
E 43 44 2
E 44 45 4
E 45 46 10
E 46 47 10
E 47 48 1
E 48 49 5
E 49 50 10
END

SECTION Terminals
Terminals 12
T 3
T 5
T 6
T 21
T 22
T 25
T 32
T 35
T 41
T 42
T 44
T 46
END

EOF
