33D32945 STP File, STP Format Version 1.0

SECTION Comment
Name    "small08"
Creator "Nikola Labus"
Remark  "Generated example, 40 nodes, 10 terminals"
END

SECTION Graph
Nodes 40
Edges 80
E 1 2 10
E 1 7 7
E 1 31 6
E 2 3 5
E 2 6 7
E 2 32 7
E 2 35 1
E 2 37 7
E 3 4 7
E 4 5 9
E 4 12 5
E 4 27 4
E 4 30 9
E 5 6 1
E 5 19 4
E 6 7 5
E 6 17 8
E 6 35 3
E 7 8 5
E 8 9 4
E 8 16 8
E 9 10 7
E 9 30 9
E 9 31 2
E 10 11 10
E 10 14 2
E 10 15 7
E 10 40 4
E 11 12 10
E 11 31 8
E 12 13 6
E 12 15 9
E 13 14 8
E 13 16 1
E 13 25 8
E 14 15 8
E 15 16 8
E 15 18 7
E 15 23 2
E 15 39 8
E 16 17 4
E 16 18 8
E 16 26 3
E 17 18 9
E 18 19 8
E 18 22 6
E 18 25 7
E 18 34 8
E 19 20 3
E 20 21 2
E 20 25 7
E 21 22 5
E 21 25 4
E 21 30 6
E 22 23 9
E 22 26 3
E 22 35 8
E 23 24 10
E 24 25 6
E 25 26 2
E 25 27 10
E 26 27 4
E 26 38 10
E 27 28 5
E 28 29 4
E 28 36 8
E 29 30 4
E 29 40 9
E 30 31 3
E 31 32 1
E 32 33 1
E 33 34 4
E 34 35 8
E 35 36 10
E 35 40 1
E 36 37 2
E 36 39 6
E 37 38 8
E 38 39 7
E 39 40 10
END

SECTION Terminals
Terminals 10
T 4
T 8
T 11
T 14
T 17
T 20
T 24
T 30
T 35
T 37
END

EOF
